<?xml version="1.0" standalone="no"?><!DOCTYPE svg PUBLIC "-//W3C//DTD SVG 1.1//EN" "http://www.w3.org/Graphics/SVG/1.1/DTD/svg11.dtd"><svg t="1532165841112" class="icon" style="" viewBox="0 0 1024 1024" version="1.1" xmlns="http://www.w3.org/2000/svg" p-id="1299" xmlns:xlink="http://www.w3.org/1999/xlink" width="200" height="200"><defs><style type="text/css"></style></defs><path d="M521.4 672.7h45v-320h-45v320z m206.1 0l-1.2-1.4-100.5-121.4L721 433.7l2.9-3.5h-55l-0.6 0.7-82.8 99.4c-2.6 3-4.7 6.3-6.4 9.8-1.4 3.1-2.1 6.4-2.2 9.7 0 3.1 0.7 6.1 2 8.9 1.5 3.2 3.4 6.2 5.8 8.9l86.5 105.1h56.3z m232.7-146.6v-31.7c1.3-18-4.4-35.9-16-49.7-12.8-12-30.1-18-47.6-16.8h-72.4c-18.4-1.4-36.5 4.4-50.7 16-12.2 12.7-18.5 30-17.1 47.6v113.7c-0.2 10.7 1.5 21.2 5.2 31.3 6.1 16.3 19.8 28.6 36.8 32.8 9.7 2.5 19.7 3.6 29.8 3.4h132V627H835.9c-4.9 0.1-9.8-0.3-14.6-1.4-3.3-0.6-6.4-1.9-9.1-3.9-2.9-2.2-5.1-5.1-6.5-8.4-1.7-4.1-2.8-8.4-3-12.8l-0.1-2v-97.2c-0.6-8.1 2.6-16.1 8.6-21.5 7.9-5.4 17.4-8 26.9-7.3h45.4c8.1-0.6 16.2 1.6 22.9 6.3 5.2 4.7 7.9 11.6 7.4 18.6v2.5l-93.4 38.6-1.4 0.5v44.6l3-1.2 136.8-55.8 1.4-0.5zM436.9 352.7h-46.5v183.2H274l92-183.2h-50.4l-91 180.4c-2.6 4.9-3.8 10.4-3.8 15.9 0 6.7 2.2 13.3 6.2 18.7 8.9 10.4 22.3 15.8 35.9 14.4h127.5v90.7h46.5v-320z m-269.2 320h-46.5V398.8H92.7l-28.5-46.1h103.5v320z" fill="#FFFFFF" p-id="1300"></path></svg>