<?xml version="1.0" standalone="no"?><!DOCTYPE svg PUBLIC "-//W3C//DTD SVG 1.1//EN" "http://www.w3.org/Graphics/SVG/1.1/DTD/svg11.dtd"><svg t="1532165910387" class="icon" style="" viewBox="0 0 1024 1024" version="1.1" xmlns="http://www.w3.org/2000/svg" p-id="2487" xmlns:xlink="http://www.w3.org/1999/xlink" width="200" height="200"><defs><style type="text/css"></style></defs><path d="M698.8 172c98.5 94.1 102 250.2 7.9 348.6-2.6 2.7-5.2 5.3-7.9 7.9-49.4 47.7-115.4 74.2-184.1 73.8-180.1-1.2-334.5 128.5-364.5 306.1-2.1 12.6-13 21.7-25.8 21.6-1.2 0-2.4-0.1-3.6-0.3-13.9-1.6-23.8-14.1-22.2-28 0-0.2 0-0.4 0.1-0.6 15.4-96.8 65.3-184.8 140.5-247.6 43.9-37.3 94.9-65.4 149.9-82.5-21.3-11.3-41-25.6-58.3-42.5-98.5-94.1-102-250.2-7.8-348.7 2.6-2.7 5.2-5.3 7.8-7.8 102.9-98.4 265.1-98.4 368 0z m-184 380c111.4-3.5 198.9-96.6 195.4-208s-96.6-198.9-208-195.4c-108.9 3.4-195.5 92.7-195.5 201.7 1.9 113.1 95 203.3 208.1 201.7z m413 349.1c1.7 13.9-8.2 26.6-22.2 28.3h-0.3c-1.2 0.1-2.3 0.1-3.5 0-12.8 0.2-23.8-9.2-25.8-21.8-10.4-75.3-45.4-145-99.5-198.4-9.7-9.6-9.8-25.2-0.2-34.9l0.7-0.7c10.5-9.8 26.8-9.5 36.9 0.6 30.3 30.2 55.6 65 75 103.1 19.6 38.8 32.7 80.5 38.7 123.6l0.2 0.2z" fill="#B4B5C4" p-id="2488"></path></svg>