<?xml version="1.0" standalone="no"?><!DOCTYPE svg PUBLIC "-//W3C//DTD SVG 1.1//EN" "http://www.w3.org/Graphics/SVG/1.1/DTD/svg11.dtd"><svg t="1532165866921" class="icon" style="" viewBox="0 0 1024 1024" version="1.1" xmlns="http://www.w3.org/2000/svg" p-id="1839" xmlns:xlink="http://www.w3.org/1999/xlink" width="200" height="200"><defs><style type="text/css"></style></defs><path d="M738.7 564c29.3 1.4 54.1-21.3 55.5-50.4 1.4-29.3-21.3-54.1-50.4-55.5-1.7-0.1-3.4-0.1-5 0H288.3c-29.3-1.4-54.1 21.3-55.5 50.4-1.4 29.3 21.3 54.1 50.4 55.5 1.7 0.1 3.4 0.1 5 0h450.5M513.6 64.2c246.7 0 446.8 200.1 446.8 446.8S760.3 957.6 513.6 957.6 66.8 757.7 66.8 511C66.3 264.8 265.3 64.8 511.5 64.2h2.1" fill="#B4B5C4" p-id="1840"></path></svg>