<?xml version="1.0" standalone="no"?><!DOCTYPE svg PUBLIC "-//W3C//DTD SVG 1.1//EN" "http://www.w3.org/Graphics/SVG/1.1/DTD/svg11.dtd"><svg t="1532165851308" class="icon" style="" viewBox="0 0 1024 1024" version="1.1" xmlns="http://www.w3.org/2000/svg" p-id="1515" xmlns:xlink="http://www.w3.org/1999/xlink" width="200" height="200"><defs><style type="text/css"></style></defs><path d="M767.7 927c69.6 0.5 126.5-55.5 127.2-125.1V224.6c0.3-68.9-55.3-125-124.3-125.4H259.1c-69.6-0.5-126.6 55.5-127.2 125.3v577.1c0.4 69.6 57 125.8 126.6 125.4h509.2zM837 800.8c-0.5 37.5-31 67.5-68.5 67.6H259.9c-37.6 0.3-68.2-30-68.5-67.5V223.7c0.5-37.5 31-67.5 68.5-67.6h508.9c37.6-0.3 68.2 30 68.5 67.5V801l-0.3-0.2z m-86-97.6c0-16.1-13-29.1-29.1-29.3H306.7c-16-0.1-29.3 12.7-29.4 28.9v0.4c0.3 16 13.2 29 29.4 29.1H722c16.1 0 29.1-13 29.1-29.1v-0.1h-0.1v0.1z m0-190.3c0-16.1-13-29.3-29.1-29.3H306.7c-16.1-0.1-29.3 12.9-29.4 28.9v0.3c0.3 16 13.2 29 29.4 29.1H722c16.1 0 29.1-13 29.1-29.1v-0.1h-0.1v0.2zM555.6 322.3c-0.3-16-13.2-29-29.4-29.1H306.7c-16-0.1-29.3 12.7-29.4 28.9v0.4c-0.6 15.5 11.6 28.6 27.1 29.1h221.9c16.1 0.1 29.3-12.9 29.4-29v-0.1l-0.1-0.2z" fill="#B4B5C4" p-id="1516"></path></svg>