<?xml version="1.0" standalone="no"?><!DOCTYPE svg PUBLIC "-//W3C//DTD SVG 1.1//EN" "http://www.w3.org/Graphics/SVG/1.1/DTD/svg11.dtd"><svg t="1532165871453" class="icon" style="" viewBox="0 0 1024 1024" version="1.1" xmlns="http://www.w3.org/2000/svg" p-id="1947" xmlns:xlink="http://www.w3.org/1999/xlink" width="200" height="200"><defs><style type="text/css"></style></defs><path d="M100.6 901.6V712.4c0-14.2 11.5-25.8 25.8-25.9H237.3c14.2 0 25.8 11.5 25.9 25.8v189.1c0 14.2-11.5 25.9-25.9 25.9H126.5c-14.2 0-25.7-11.4-25.9-25.7z m51.7-163.2h59.1v137.3h-59.1V738.4z m195.8 189c-14.2 0-25.9-11.5-25.9-25.9V368.1c0-14.2 11.5-25.9 25.9-25.9h111c14.2 0 25.9 11.5 25.9 25.9v533.6c0 14.2-11.5 25.9-25.9 25.9h-111v-0.2z m25.8-533.5H433v481.9h-59.1V393.9z m195.5 533.5c-14.2 0-25.9-11.5-25.9-25.9V544.8c0-14.2 11.5-25.9 25.9-25.9h110.8c14.2 0 25.9 11.5 25.9 25.9v356.9c0 14.2-11.5 25.9-25.9 25.9H569.4v-0.2z m25.9-356.7h59.1v305.1h-58.9V570.7h-0.2z m196-470.5H902c14.2 0 25.8 11.5 25.9 25.8v775.6c0 14.2-11.5 25.9-25.9 25.9H791.3c-14.2 0-25.9-11.5-25.9-25.9V126.1c0-14.2 11.5-25.9 25.9-25.9-0.2 0-0.2 0 0 0z m25.7 51.7h59.1v723.8H817V151.9z" fill="#B4B5C4" p-id="1948"></path></svg>