<?xml version="1.0" standalone="no"?><!DOCTYPE svg PUBLIC "-//W3C//DTD SVG 1.1//EN" "http://www.w3.org/Graphics/SVG/1.1/DTD/svg11.dtd"><svg t="1532165967281" class="icon" style="" viewBox="0 0 1024 1024" version="1.1" xmlns="http://www.w3.org/2000/svg" p-id="3135" xmlns:xlink="http://www.w3.org/1999/xlink" width="200" height="200"><defs><style type="text/css"></style></defs><path d="M960 511.2c0 246.9-200.1 447-447 447S66 758.1 66 511.2s200.1-447 447-447c246.3-0.6 446.4 198.6 447 444.9v2.1z m-167.6 0c-0.1-30.8-25-55.8-55.8-55.9H568.8V291.5c-0.8-30.5-25.3-55.1-55.8-55.9-30.3-0.6-55.3 23.5-55.9 53.9v165.8H289.5c-30.3-0.5-55.4 23.6-55.9 54v1.9c0.1 30.8 25.1 55.8 55.9 55.8h167.6v167.7c0.8 30.5 25.4 55.1 55.9 55.8 30.3 0.6 55.3-23.5 55.8-53.8V567.1h167.7c30.8-0.1 55.8-25.1 55.9-55.9z" fill="#B4B5C4" p-id="3136"></path></svg>