<?xml version="1.0" standalone="no"?><!DOCTYPE svg PUBLIC "-//W3C//DTD SVG 1.1//EN" "http://www.w3.org/Graphics/SVG/1.1/DTD/svg11.dtd"><svg t="1532165922868" class="icon" style="" viewBox="0 0 1024 1024" version="1.1" xmlns="http://www.w3.org/2000/svg" p-id="2595" xmlns:xlink="http://www.w3.org/1999/xlink" width="200" height="200"><defs><style type="text/css"></style></defs><path d="M410.7 110.6C188.6 166.6 53.9 392 109.9 614.1 165.8 836.3 391.2 971 613.4 915c222.1-56 356.8-281.4 300.9-503.5-1.7-6.6-3.5-13.2-5.5-19.7-8.9-29.3-21.1-57.4-36.3-84-5.3-9.3-15.6-14.6-26.2-13.4-11 1.4-19.9 9.6-22.1 20.5-1.3 8.6 0.9 17.4 6.2 24.4 43.2 76.9 56 167.2 35.8 253-44 195.4-238.1 318.1-433.5 274.1C280 832 166.6 703.7 151.3 548.1c-6.8-65.3 4.7-131.3 33.2-190.5 84.8-180.5 299.9-258 480.3-173.2 8.5 4 16.8 8.3 24.9 12.9 5.5 3.5 12.1 5 18.6 4.3 11.3-1.5 20.3-10.2 22.1-21.4 2.2-11.1-3.3-22.2-13.4-27.2-56.2-32.9-119.5-51.5-184.6-54.3-40.9-1.8-81.9 2.3-121.7 11.9z m75.4 454c-2.2 0.1-4.5-0.1-6.7-0.5H384c-6.6-0.4-13.2 1.9-18.2 6.2-8.3 6.8-11.3 18.1-7.6 28.1 3.6 10.3 13.4 17.2 24.3 17.2h103.6v101.7c-0.5 8.2 2.9 16.1 9.1 21.5 10.9 9.2 27.3 7.8 36.4-3.2 4-4.7 6.1-10.7 6.1-16.9v-103h102c4.4 0.2 8.8-0.6 12.9-2.4 12.9-6 18.5-21.4 12.5-34.3-4.2-8.9-13.1-14.7-23-14.9H537.7v-52h99.8c2.9 0.1 5.7-0.1 8.6-0.5 13.8-2.4 23.1-15.6 20.7-29.4 0-0.2-0.1-0.4-0.1-0.7-2.5-12.8-14.2-21.8-27.2-21h-89.7l-1-1.9c1.7-0.9 3.3-2 4.8-3.3l73.5-73.5c11.1-10.6 21.5-21.1 32-32 10.3-9.8 10.6-26 0.9-36.3-3.3-3.5-7.6-6-12.3-7.2-9.6-2.5-19.7 0.7-26.2 8.1-34.9 35.4-69.7 70.2-104.6 105-1.4 1.5-2.7 3.1-3.8 4.8-0.9 0-1.4 0.5-2.4 0.5-0.7-2-1.6-3.8-2.9-5.5-34.4-34.9-68.7-69.2-103.1-103.6-1.7-2-3.6-3.8-5.5-5.5-11.1-8.7-27.1-6.8-35.8 4.3-0.7 0.9-1.4 1.9-2 2.9-6.3 11-4 24.8 5.5 33.2l105 105c1.3 1.7 2.7 3.3 4.3 4.8h-91.1c-13.7-0.8-25.6 9.3-27.2 22.9-2.1 13.8 7.4 26.8 21.2 28.9 2 0.3 4 0.4 6 0.2h101.2v52.1l-0.2 0.2z" fill="#B4B5C4" p-id="2596"></path></svg>