<?xml version="1.0" standalone="no"?><!DOCTYPE svg PUBLIC "-//W3C//DTD SVG 1.1//EN" "http://www.w3.org/Graphics/SVG/1.1/DTD/svg11.dtd"><svg t="1532165876912" class="icon" style="" viewBox="0 0 1024 1024" version="1.1" xmlns="http://www.w3.org/2000/svg" p-id="2055" xmlns:xlink="http://www.w3.org/1999/xlink" width="200" height="200"><defs><style type="text/css"></style></defs><path d="M435.6 807.1c10.9 0 19.8 8.9 19.8 19.8s-8.9 19.8-19.8 19.8H317.5c-54.5 0-98.7-44.2-98.8-98.7V272.6c0-54.5 44.1-98.7 98.5-98.7h354.9c54.4-0.1 98.6 43.9 98.7 98.3v40.5c0 10.9-8.8 19.7-19.7 19.7-10.9 0-19.7-8.8-19.7-19.7v-40.3c0-32.5-26.3-58.8-58.8-58.8H317.4c-32.7-0.1-59.2 26.4-59.2 59v475.5c0.1 32.7 26.6 59.2 59.4 59.1h118.1l-0.1-0.1zM337 352c-10.9 0-19.8-8.9-19.8-19.8s8.9-19.8 19.8-19.8h315.5c10.9 0 19.8 8.9 19.8 19.8s-8.9 19.8-19.8 19.8H337z m0 118.7c-10.9 0-19.8-8.9-19.8-19.8s8.9-19.8 19.8-19.8h236.6c10.9 0 19.8 8.9 19.8 19.8s-8.9 19.8-19.8 19.8H337z m0 118.8c-10.9 0-19.8-8.9-19.8-19.8s8.9-19.8 19.8-19.8h157.8c10.9 0 19.8 8.9 19.8 19.8s-8.9 19.8-19.8 19.8H337z m410.8-156.4c-18.7-10.9-42.7-4.6-53.6 14.1-0.1 0.2-0.2 0.4-0.4 0.6L536.3 721.6c-13.4 27.2-15 58.7-4.4 87.1 0 0 1.4 3.9 1.5 4.3-0.7-1.1-1.6-1.9-2.7-2.4-1.1-0.8-2.5-1.2-3.9-1.1h-0.7l5.1-1.1c30-4.8 56.6-22 73.3-47.3L762 487.3c11-18.9 4.6-43.2-14.3-54.3l0.1 0.1z m-88.2-5.1c21.9-37.7 70.1-50.6 107.9-28.7 37.7 21.9 50.6 70.1 28.7 107.9L638.7 781c-23.2 36.7-61.4 61.2-104.3 67l-1.6-19.6 6.7 18.6c-2.8 1-5.8 1.6-8.8 1.9-6.9 0.9-13.8-0.5-19.8-3.9-6-3.6-10.7-9-13.4-15.5-1.3-2.7-2.2-5.5-2.8-8.5l19.3-3.9-17.9 8.3c-16-40-13.8-85.1 6-123.4l157.5-274z m47.9 115.8l16.6 9.6 19.7-34.2-7.5-4.4-52.2-30.3-8.4-4.9-19.9 34.6 8.8 4.6 42.9 25z" fill="#B4B5C4" p-id="2056"></path></svg>