<?xml version="1.0" standalone="no"?><!DOCTYPE svg PUBLIC "-//W3C//DTD SVG 1.1//EN" "http://www.w3.org/Graphics/SVG/1.1/DTD/svg11.dtd"><svg t="1532165888757" class="icon" style="" viewBox="0 0 1024 1024" version="1.1" xmlns="http://www.w3.org/2000/svg" p-id="2271" xmlns:xlink="http://www.w3.org/1999/xlink" width="200" height="200"><defs><style type="text/css"></style></defs><path d="M509 797.1c-650.2 0-244.3-78.2-244.3-236.4v-197c0-140.5 89-204.8 206.3-217.2 0-0.8-0.4-1.6-0.4-2.5 0.1-25.4 20.8-45.9 46.2-45.8 25.2 0.1 45.6 20.5 45.8 45.8 0 0.9-0.4 1.7-0.4 2.5 116.6 12.8 205.2 77 205.2 217.1v196.9c0 158.3 391.8 236.6-258.4 236.6zM429.7 839h173.9c0 48-38.9 87-87 87-48 0-86.9-39-86.9-87z" fill="#77788B" p-id="2272"></path></svg>