<?xml version="1.0" standalone="no"?><!DOCTYPE svg PUBLIC "-//W3C//DTD SVG 1.1//EN" "http://www.w3.org/Graphics/SVG/1.1/DTD/svg11.dtd"><svg t="1532165903270" class="icon" style="" viewBox="0 0 1024 1024" version="1.1" xmlns="http://www.w3.org/2000/svg" p-id="2379" xmlns:xlink="http://www.w3.org/1999/xlink" width="200" height="200"><defs><style type="text/css"></style></defs><path d="M892.4 928.2V553.1H708v-194L549.8 243.3v-29.6h140.8V98.2H490.3v145.3l-160 122.1V553H132.8v375.2h330.7V779.4c0.5-27.7 23.4-49.7 51-49.3 28.5-0.5 52 22.1 52.6 50.6V928h325.2v0.2zM607.2 781c-0.6-50.5-41.9-91-92.5-90.5-49.8-0.6-90.6 39.3-91.1 89.1v108.9H172.7V592.8h197.5V385.2l150.1-114.3 148 108.3v213.6h184.4v295.6H607V781h0.2z m-77-606.9h120.5v-35.9H530.2v35.9z m77.1 279.5c1.1-50.3-38.8-92-89.1-93.1-50.3-1.1-92 38.8-93.1 89.1-1.1 50.3 38.8 92 89.1 93.1h2c49.7 0.6 90.6-39.3 91.1-89v-0.4 0.3z m-39.8 0c1 28.2-21.1 51.9-49.3 52.8-28.2 1-51.9-21.1-52.8-49.3-1-28.2 21.1-51.9 49.3-52.8h1.8c27.6-0.4 50.4 21.5 51 49.1v0.2z" fill="#B4B5C4" p-id="2380"></path></svg>