<?xml version="1.0" standalone="no"?><!DOCTYPE svg PUBLIC "-//W3C//DTD SVG 1.1//EN" "http://www.w3.org/Graphics/SVG/1.1/DTD/svg11.dtd"><svg t="1532165930874" class="icon" style="" viewBox="0 0 1024 1024" version="1.1" xmlns="http://www.w3.org/2000/svg" p-id="2703" xmlns:xlink="http://www.w3.org/1999/xlink" width="200" height="200"><defs><style type="text/css"></style></defs><path d="M857.2 517.3c-0.1 55.5 30.6 106.5 79.7 132.4a43.29 43.29 0 0 1 23.4 38.2v82.2c0 35.4-28.6 64.1-64 64.2H128.1c-35.4 0-64.1-28.8-64.1-64.2v-80c0.1-16.5 9.6-31.5 24.5-38.6 74.1-36.9 104.2-126.9 67.3-201-14.5-29.2-38.2-52.8-67.3-67.3-14.9-7.1-24.4-22.1-24.5-38.7v-88c0-35.4 28.6-64.1 64-64.2h768.2c35.4 0 64.2 28.7 64.2 64.2v90.1c-0.1 16.1-9.1 30.8-23.4 38.2-49.3 25.9-80 76.9-79.8 132.5z m-42.8 0c-0.1-71.3 39.3-136.9 102.4-170.2l0.8-0.4v-90.2c0-11.8-9.6-21.4-21.4-21.5H128c-11.8 0.1-21.4 9.6-21.4 21.5v87.9c95.5 47 134.7 162.5 87.7 258-18.6 37.8-49.2 68.5-86.9 87.3l-0.8 80.4c0 11.8 9.6 21.4 21.4 21.4h768.1c11.8 0 21.4-9.6 21.4-21.4v-82.2c-63.5-33.2-103.2-99-103.1-170.6zM595.8 349.5c8.3 8.3 8.4 21.8 0.1 30.2l-0.1 0.1-272.3 271.7c-7.4 9.1-20.9 10.5-30 3.1-9.1-7.4-10.5-20.9-3.1-30 0.9-1.1 1.8-2 2.9-2.9L566 349.5c8.4-8.3 21.9-8.3 30.2 0h-0.4z m133.4-49.6v42.7c0 11.8-9.6 21.4-21.5 21.4-11.8 0-21.4-9.6-21.4-21.4V300c0-11.9 9.6-21.5 21.5-21.5s21.5 9.6 21.5 21.5l-0.1-0.1z m0 128.1v42.7c0 11.8-9.6 21.4-21.5 21.4-11.8 0-21.4-9.6-21.4-21.4V428c0-11.9 9.6-21.5 21.5-21.5s21.5 9.6 21.5 21.5h-0.1z m0 127.3V598c0 11.8-9.6 21.4-21.5 21.4-11.8 0-21.4-9.6-21.4-21.4v-42.7c0-11.9 9.6-21.5 21.5-21.5s21.5 9.6 21.5 21.5h-0.1z m0 128.8v42.7c0 11.8-9.6 21.4-21.5 21.4-11.8 0-21.4-9.6-21.4-21.4v-42.7c0-11.9 9.6-21.5 21.5-21.5s21.5 9.6 21.5 21.5h-0.1zM279.1 396.5c0-41.4 33.6-74.9 74.9-74.8 41.4 0 74.8 33.6 74.8 74.9 0 41.3-33.6 74.8-74.9 74.8-41.3 0-74.8-33.6-74.8-74.9z m42.9 0c0 17.7 14.4 32 32.1 32 17.7 0 32-14.4 32-32.1 0-17.7-14.4-32-32-32-17.7 0.1-31.9 14.4-31.9 32.1h-0.2z m290 214.2c-0.1 41.4-33.6 74.8-75 74.8-41.4-0.1-74.8-33.6-74.8-75 0.1-41.3 33.6-74.8 74.9-74.8 41.4 0.1 74.9 33.6 74.9 75z m-42.9 0c0-17.7-14.3-32-32-32s-32 14.3-32 32 14.3 32 32 32h0.1c17.6-0.1 31.9-14.4 31.9-32z" fill="#B4B5C4" p-id="2704"></path></svg>