<?xml version="1.0" standalone="no"?><!DOCTYPE svg PUBLIC "-//W3C//DTD SVG 1.1//EN" "http://www.w3.org/Graphics/SVG/1.1/DTD/svg11.dtd"><svg t="1532165860117" class="icon" style="" viewBox="0 0 1024 1024" version="1.1" xmlns="http://www.w3.org/2000/svg" p-id="1731" xmlns:xlink="http://www.w3.org/1999/xlink" width="200" height="200"><defs><style type="text/css"></style></defs><path d="M857.5 517.2c-0.1 55.6 30.6 106.7 79.7 132.6 14.3 7.5 23.4 22.1 23.5 38.3v82.4c0 35.5-28.6 64.2-64.1 64.3H127.3c-35.5 0-64.2-28.9-64.2-64.3v-80.1c0.1-16.5 9.7-31.5 24.5-38.7 74.3-36.9 104.4-127 67.4-201.3-14.6-29.2-38.2-52.9-67.4-67.4-14.9-7.1-24.5-22.1-24.5-38.7v-88.2c0-35.5 28.6-64.2 64.1-64.3h769.4c35.5 0 64.3 28.7 64.3 64.3v90.3c-0.1 16.2-9.2 30.9-23.5 38.2-49.3 25.9-80 77-79.9 132.6z m-42.9 0c-0.1-71.4 39.4-137.1 102.6-170.4l0.7-0.4v-90.3c0-11.8-9.6-21.4-21.4-21.4H127.2c-11.8 0-21.4 9.6-21.4 21.4v88.1c95.5 47.1 135 162.7 87.8 258.4-18.7 37.9-49.3 68.7-87.1 87.5l-0.7 80.5c0 11.8 9.6 21.4 21.4 21.4h769.3c11.8 0 21.4-9.6 21.4-21.4v-82.4c-63.5-33.3-103.3-99.2-103.3-171zM595.8 349.3c8.3 8.3 8.5 21.8 0.1 30.1l-0.1 0.1L323 651.7c-9.1 7.6-22.5 6.3-30.1-2.7-6.5-7.8-6.6-19.3-0.1-27.1l273.1-272.4c8.3-8.3 21.9-8.3 30.2 0h-0.2v-0.2z m133.6-49.8v42.8c0 11.8-9.7 21.5-21.5 21.4-11.8 0-21.4-9.6-21.4-21.4v-42.7c0-11.9 9.7-21.5 21.5-21.5 11.9 0 21.5 9.7 21.5 21.5l-0.1-0.1z m0 128.4v42.7c0 11.8-9.7 21.5-21.5 21.4-11.8 0-21.4-9.6-21.4-21.4v-42.8c0-11.9 9.7-21.5 21.5-21.5 11.9 0 21.5 9.7 21.5 21.5l-0.1 0.1z m0 127.5v42.8c0 11.8-9.7 21.5-21.5 21.4-11.8 0-21.4-9.6-21.4-21.4v-42.8c0-11.9 9.7-21.5 21.5-21.5 11.9 0 21.5 9.7 21.5 21.5h-0.1z m0 129v42.8c0 11.8-9.7 21.5-21.5 21.4-11.8 0-21.4-9.6-21.4-21.4v-42.8c0-11.9 9.7-21.5 21.5-21.5 11.9 0 21.5 9.7 21.5 21.5h-0.1zM278.6 396.3c0-41.4 33.6-75 75-74.9s75 33.6 74.9 75c0 41.4-33.6 75-75 74.9-41.3 0-74.9-33.6-74.9-75z m42.9 0c0 17.7 14.4 32.1 32.1 32 17.7 0 32.1-14.4 32-32.1 0-17.7-14.4-32-32.1-32-17.6 0-31.9 14.4-32 32.1zM612 610.8c-0.1 41.4-33.7 74.9-75.1 74.9-41.4-0.1-74.9-33.7-74.9-75.1 0.1-41.4 33.7-74.9 75-74.9 41.4 0 75 33.6 75 75.1z m-42.9 0c0-17.7-14.3-32.1-32.1-32.1s-32.1 14.3-32.1 32.1c0 17.7 14.3 32.1 32.1 32.1s32.1-14.5 32.1-32.1z" fill="#FFFFFF" p-id="1732"></path></svg>