<?xml version="1.0" standalone="no"?><!DOCTYPE svg PUBLIC "-//W3C//DTD SVG 1.1//EN" "http://www.w3.org/Graphics/SVG/1.1/DTD/svg11.dtd"><svg t="1532165884286" class="icon" style="" viewBox="0 0 1024 1024" version="1.1" xmlns="http://www.w3.org/2000/svg" p-id="2163" xmlns:xlink="http://www.w3.org/1999/xlink" width="200" height="200"><defs><style type="text/css"></style></defs><path d="M754.1 535.4l56.3 44.4c12.4 10 15.7 27.6 7.7 41.4l-60.2 105.4c-5.7 9.9-16.3 16.1-27.8 16.1-4 0-7.9-0.7-11.6-2.2l-66.4-27.1c-12 8.6-24.7 16.1-38 22.3l-10 71.4c-2.4 15.6-15.8 27.2-31.6 27.4H451.9c-15.8 0-29.2-11.5-31.6-27.1l-10.1-71.7c-13.3-6.2-26-13.7-38-22.3L306 740.3c-14.8 5.8-31.5-0.1-39.5-13.8l-60.6-105.6c-7.9-13.6-4.7-30.9 7.4-40.8l56.6-44.7c-0.7-7.3-1.2-14.8-1.2-22.3s0.5-15 1.2-22.3l-56.3-44.5c-12.4-9.9-15.6-27.4-7.7-41.1l60.3-105.4c8-13.5 24.5-19.4 39.3-14l66.4 27c12-8.6 24.7-16.1 38-22.3l10-71.4c2.3-15.8 15.9-27.5 31.8-27.4h120.6c15.8 0.1 29.1 11.6 31.6 27.1l10.1 71.6c13.3 6.2 26 13.7 37.9 22.3l66.2-26.9c14.8-5.9 31.6 0.1 39.5 13.9l60.5 105.4c7.9 13.6 4.7 31-7.5 40.9l-56.5 44.7c0.7 7.4 1.2 14.8 1.2 22.3s-0.4 14.9-1.2 22.3z m34.6 68.8l-63-48.1c-4.7-3.7-7.1-9.5-6.3-15.4 1.3-9.1 1.9-18.4 2-27.6-0.1-9.2-0.7-18.4-2-27.6-0.7-5.9 1.7-11.7 6.3-15.4l63.7-50.3-60.9-103.4-72.4 31.2c-5.5 2.2-11.8 1.3-16.5-2.3-14.4-11.2-30.3-20.5-47.1-27.7-5.5-2.3-9.4-7.3-10.3-13.2l-11.3-80.7-118.8 1.7-9.4 78.9c-0.8 5.9-4.7 11-10.2 13.3-16.9 7.1-32.7 16.5-47.2 27.7-4.7 3.6-11 4.5-16.5 2.3l-75-30.5L236 421.9l63 48.1c4.7 3.7 7.1 9.6 6.3 15.5-1.2 9.1-1.9 18.3-1.9 27.5s0.7 18.4 2 27.6c0.7 5.9-1.6 11.8-6.3 15.5L235 606.4l61 103.4 72.4-31.2c5.5-2.2 11.8-1.3 16.5 2.3 14.4 11.2 30.3 20.5 47.1 27.6 5.5 2.3 9.4 7.4 10.3 13.3l11.3 80.7 117.1-1.7 11-79c0.9-5.9 4.7-11 10.3-13.3 16.9-7.1 32.7-16.4 47.1-27.6 4.7-3.7 11-4.5 16.5-2.3l75.1 30.6 58-105z m-150-91c-0.6 69.9-57.7 126-127.5 125.5s-126-57.7-125.5-127.5c0.6-69.5 57-125.5 126.5-125.5 70.1 0.3 126.7 57.3 126.5 127.5z m-126.5 93.6c51.7 0.6 94.2-40.9 94.7-92.7 0.6-51.7-40.9-94.2-92.7-94.7-51.7-0.6-94.2 40.9-94.7 92.7v1c-0.2 51.5 41.3 93.4 92.7 93.7z" fill="#B4B5C4" p-id="2164"></path></svg>