<?xml version="1.0" standalone="no"?><!DOCTYPE svg PUBLIC "-//W3C//DTD SVG 1.1//EN" "http://www.w3.org/Graphics/SVG/1.1/DTD/svg11.dtd"><svg t="1532165822517" class="icon" style="" viewBox="0 0 1024 1024" version="1.1" xmlns="http://www.w3.org/2000/svg" p-id="1191" xmlns:xlink="http://www.w3.org/1999/xlink" width="200" height="200"><defs><style type="text/css"></style></defs><path d="M341 98.1c54.4-22.5 112.6-34 171.5-34 54.1 0 107.8 9.8 158.5 28.9 50.7 19.3 97.6 47.6 138.2 83.5l2.8 2.6C699.1 324.3 586.1 469.5 472.9 614.7h355.9v61H393.6v-58.4l0.9-1.1 327.4-420.4c-30.2-20.1-63.2-35.7-97.9-46.4-36.1-11.1-73.7-16.8-111.5-16.8-49.8-0.1-99.2 9.7-145.2 28.8-46.1 19.1-88 47.1-123.3 82.4-35.3 35.3-63.3 77.2-82.4 123.3-19 46.1-28.8 95.5-28.6 145.3-0.1 49.8 9.7 99.2 28.8 145.2 19.1 46.1 47.1 88 82.4 123.3 35.3 35.3 77.2 63.4 123.3 82.4 46 19 95.3 28.7 145.1 28.6 26.4 0 52.7-2.7 78.5-8.2 23.7-4.9 46.8-12.2 69.1-21.6V936c-22.1 7.7-44.8 13.7-67.9 17.8-26.3 4.7-52.9 7.1-79.6 7.1-58.8 0.1-117.1-11.5-171.5-34-54.5-22.6-104-55.6-145.7-97.4-41.7-41.7-74.8-91.2-97.4-145.7C75.4 629.5 63.9 571.3 64 512.5c0-58.8 11.5-117 34-171.4 22.6-54.5 55.7-104 97.4-145.7 41.7-41.7 91.2-74.8 145.7-97.4l-0.1 0.1z m492.8 101.7c39.6 40.8 71.2 88.7 93.1 141.3 22.5 54.4 34 112.6 33.9 171.5 0.1 58.8-11.5 117.1-33.9 171.5-22.6 54.5-55.7 104-97.4 145.7-19.3 19.3-40.3 36.8-62.8 52.4-22.4 15.4-46.1 28.8-71 39.9l-5.9 2.7V705.3h61v102.6c4.1-3.3 8.1-6.8 12.2-10.3 6.2-5.4 12.1-11 17.8-16.8 35.3-35.3 63.4-77.2 82.4-123.3 19.1-46 28.8-95.2 28.8-145 0-48.7-9.3-97-27.5-142.1-17.3-42.7-42.2-81.9-73.5-115.7l42.8-54.9z m-346.4 80.7L181.3 673.3l-1.8 2.4h77.1l306-392.6 2-2.6h-77.2z m202.5 100.7V585h61V381.2h-61z" fill="#FFFFFF" p-id="1192"></path></svg>