<?xml version="1.0" standalone="no"?><!DOCTYPE svg PUBLIC "-//W3C//DTD SVG 1.1//EN" "http://www.w3.org/Graphics/SVG/1.1/DTD/svg11.dtd"><svg t="1532165846528" class="icon" style="" viewBox="0 0 1024 1024" version="1.1" xmlns="http://www.w3.org/2000/svg" p-id="1407" xmlns:xlink="http://www.w3.org/1999/xlink" width="200" height="200"><defs><style type="text/css"></style></defs><path d="M747.7 927.2c72.9 6.2 137.1-48 143.4-120.9 0.5-6.3 0.6-12.7 0.3-19 0-122-28.4-309.6-186.4-309.6-16.6 0-87.2 75.1-192.5 75.1s-176.1-75.1-192.8-75.1c-157.6 0-186 187.4-186 309.6-4.3 73.1 51.4 135.9 124.6 140.2 6.3 0.4 12.7 0.3 19-0.3h470.4M512.5 512.5c114.6 0.5 207.8-91.9 208.4-206.4 0.5-114.6-91.9-207.8-206.4-208.4-114.5-0.5-207.8 91.8-208.4 206.4v1c-0.4 114.3 92.1 207.2 206.4 207.4" fill="#77788B" p-id="1408"></path></svg>