<?xml version="1.0" encoding="utf-8"?>
<!-- Generator: Adobe Illustrator 22.0.0, SVG Export Plug-In . SVG Version: 6.00 Build 0)  -->
<svg version="1.1" id="图层_1" xmlns="http://www.w3.org/2000/svg" xmlns:xlink="http://www.w3.org/1999/xlink" x="0px" y="0px"
	 viewBox="0 0 1024 1024" style="enable-background:new 0 0 1024 1024;" xml:space="preserve">
<style type="text/css">
	.st0{fill:#F9DFD3;}
	.st1{fill:#EC622F;}
	.st2{fill:none;}
</style>
<g>
	<g>
		<path class="st0" d="M766.5,702.3c7.6-31.7,11.6-65,11.6-99.2c0-222.4-170.1-402.7-380-402.7c-116.6,0-221,55.7-290.7,143.3V783
			l69.6,120.6h601v2.8h41.5l24.2-14.2l-24.2-31.4V742.1l29-20.2l-29-19.6H766.5z"/>
		<g>
			<path class="st1" d="M362.7,290.5l-17.3,9.8c-3.2-3.5-6.4-5.9-9.6-7.3c-3.2-1.4-6.9-2.1-11.2-2.1c-7.8,0-14.1,2.4-18.9,7.1
				c-4.8,4.7-7.2,10.8-7.2,18.2c0,7.1,2.3,13,6.9,17.5c4.6,4.5,10.7,6.8,18.2,6.8c9.3,0,16.6-3.3,21.7-9.8l16.5,11.5
				c-9,11.6-21.5,17.5-37.7,17.5c-14.6,0-26-4.4-34.2-13.1c-8.2-8.8-12.4-19-12.4-30.9c0-8.2,2-15.6,6-22.5
				c4-6.8,9.6-12.2,16.8-16.2c7.1-3.9,15.2-5.9,24.1-5.9c8.2,0,15.6,1.6,22.2,4.9C353.2,279.5,358.6,284.2,362.7,290.5z"/>
			<path class="st1" d="M418.8,271.5c8,0,15.4,1.9,22.4,5.8c7,3.9,12.4,9.3,16.2,16.1c3.8,6.8,5.8,14.1,5.8,21.9
				c0,7.8-1.9,15.1-5.8,22c-3.9,6.9-9.2,12.2-15.9,16.1c-6.7,3.8-14.2,5.8-22.5,5.8c-12,0-22.2-4.2-30.7-12.7
				c-8.4-8.5-12.6-18.9-12.6-31.1c0-13,4.8-23.8,14.4-32.4C398.4,275.3,408,271.5,418.8,271.5z M419.2,291.2
				c-6.5,0-11.9,2.3-16.2,6.8c-4.3,4.5-6.5,10.3-6.5,17.4c0,7.2,2.2,13.1,6.5,17.6c4.3,4.5,9.7,6.7,16.2,6.7s11.9-2.3,16.3-6.8
				c4.4-4.5,6.5-10.4,6.5-17.5s-2.1-13-6.4-17.5C431.4,293.4,425.9,291.2,419.2,291.2z"/>
			<path class="st1" d="M478.2,271.4h19.5v41.4c0,8.2,0.5,13.8,1.5,16.8c1,3.1,2.6,5.5,4.7,7.2c2.2,1.7,4.8,2.6,8,2.6
				c3.3,0,6.1-0.8,8.3-2.5c2.2-1.7,3.9-4.2,4.9-7.5c0.8-2.6,1.2-7.9,1.2-15.9v-42.1h19.4v36.4c0,14.9-1.1,25.2-3.2,30.8
				c-2.6,6.7-6.4,11.8-11.4,15.5c-5,3.6-11.5,5.4-19.2,5.4c-8.4,0-15.3-2.1-20.5-6.3c-5.2-4.2-8.9-10.1-11.1-17.6
				c-1.5-5.2-2.2-14.7-2.2-28.5V271.4z"/>
			<path class="st1" d="M563.8,273.3h16.6v9.6c1.8-3.8,4.2-6.6,7.2-8.7c3-2,6.3-3,9.8-3c2.5,0,6.8,1,12.9,3l-5.8,16.6
				c-5.8-1.7-9.4-2.6-11-2.6c-2.9,0-5.4,1.9-7.5,5.6c-2.1,3.7-3.1,10.9-3.1,21.7v3.8v39.5h-19.2V273.3z"/>
			<path class="st1" d="M683.3,285.2l-13.1,13.2c-5.3-5.4-10.1-8.1-14.4-8.1c-2.4,0-4.3,0.5-5.6,1.6c-1.4,1.1-2.1,2.3-2.1,3.8
				c0,1.1,0.4,2.1,1.3,3.1c0.9,1,3,2.3,6.4,4.1l7.6,3.8c8.2,3.9,13.8,8,16.8,12.2c3.1,4.2,4.6,9.2,4.6,14.8c0,7.4-2.7,13.6-8.2,18.6
				c-5.5,5-12.9,7.5-22.1,7.5c-12.3,0-22.1-4.8-29.4-14.4l13.1-14.2c2.4,2.8,5.2,5.2,8.6,7c3.3,1.8,6.3,2.7,8.9,2.7
				c2.8,0,5.1-0.7,6.8-2.1c1.7-1.4,2.5-2.9,2.5-4.5c0-3.3-3-6.5-9.1-9.6l-7.1-3.6c-13.7-6.9-20.6-15.4-20.6-25.7
				c0-6.7,2.6-12.4,7.8-17.1c5.2-4.7,11.8-7.1,19.7-7.1c5.5,0,10.7,1.2,15.5,3.6C675.8,277.3,679.9,280.8,683.3,285.2z"/>
			<path class="st1" d="M787.7,321.7h-68.2c1,6,3.7,10.7,8,14.2c4.3,3.5,9.8,5.3,16.4,5.3c7.9,0,14.7-2.7,20.3-8.2l17.7,8.2
				c-4.5,6.4-9.8,11.1-16,14.2c-6.2,3-13.5,4.5-21.9,4.5c-13.3,0-24.1-4.2-32.4-12.6c-8.3-8.4-12.4-18.8-12.4-31.3
				c0-13,4.1-23.8,12.4-32.2c8.3-8.5,18.7-12.7,31.1-12.7c13.3,0,24.1,4.2,32.4,12.7c8.3,8.5,12.5,19.8,12.5,33.9V321.7z
				 M766.4,304.9c-1.5-4.7-4.3-8.5-8.4-11.4c-4.1-2.9-8.8-4.4-14.2-4.4c-6,0-11.2,1.6-15.7,4.9c-2.7,2-5.3,5.6-7.7,10.9H766.4z"/>
		</g>
		<rect x="748.6" y="883.7" class="st2" width="23.8" height="3.9"/>
		<path class="st1" d="M909.1,887.5H878c-5.7,4.7-9.4,12-9.4,20.2c0,8.1,3.6,15.3,9.3,20h31.5c5.6-4.7,9.3-11.9,9.3-20
			C918.5,899.5,914.8,892.3,909.1,887.5z"/>
		<path class="st1" d="M799.4,102.5H226.6c-65.5,0-119.1,53.6-119.1,119.1v587c0,65.5,53.6,119.1,119.1,119.1H747h20.5h122.6h2.4h12
			c-3.2-4.4-5.1-9.9-5.1-15.8c0-7.5,3.1-14.3,8-19.2c-0.2-0.4-0.3-0.9-0.3-1.4c0-1.5,0.8-2.8,2.1-3.8l-0.5-0.2c-0.2,0-0.5,0-0.7-0.1
			c-42.3-3.5-75.6-38.2-75.6-80.5c0-42.1,32.9-76.6,74.9-80.4c0,0,0,0,0,0c5.5-0.4,10.1-4.4,11.2-9.7v-5.3v-0.8v-5.5v-17.5v-2.7
			V221.6C918.5,156.1,864.9,102.5,799.4,102.5z M759.9,887.5H747H266.1c-51.5,0-95.6-33.1-112.1-79.1c4.9-24.2,26.3-80.9,119.5-82.1
			H825c-19.8,21.2-31.9,49.5-31.9,80.5c0,31.1,12.2,59.4,32.1,80.7H759.9z M879,684.9H147V261.8c0-65.5,53.6-119.1,119.1-119.1
			h493.8c65.5,0,119.1,53.6,119.1,119.1V684.9z"/>
	</g>
	<rect x="478" y="761.5" class="st1" width="339.4" height="19.1"/>
	<rect x="593.1" y="842.3" class="st1" width="220.1" height="19.1"/>
	<rect x="331.9" y="801.9" class="st1" width="485.6" height="19.1"/>
</g>
</svg>
