<?xml version="1.0" encoding="utf-8"?>
<!-- Generator: Adobe Illustrator 22.0.0, SVG Export Plug-In . SVG Version: 6.00 Build 0)  -->
<svg version="1.1" id="图层_1" xmlns="http://www.w3.org/2000/svg" xmlns:xlink="http://www.w3.org/1999/xlink" x="0px" y="0px"
	 viewBox="0 0 1024 1024" style="enable-background:new 0 0 1024 1024;" xml:space="preserve">
<style type="text/css">
	.st0{fill:#898989;}
</style>
<g>
	<path class="st0" d="M858.6,162.6h-691c-56.8,0-102.9,46.1-102.9,102.9v493.9c0,56.8,46.1,102.9,102.9,102.9h691
		c56.8,0,102.9-46.1,102.9-102.9l0-493.9C961.5,208.7,915.4,162.6,858.6,162.6L858.6,162.6z M922.3,759.4
		c0,35.1-28.6,63.7-63.7,63.7l-691,0c-35.1,0-63.7-28.6-63.7-63.7l0-493.9c0-4.5,0.5-8.9,1.4-13.2L501,565.2
		c3.6,2.8,7.9,4.2,12.2,4.2c4.3,0,8.6-1.4,12.1-4.2l325.6-256l-24.2-30.8L513.2,524.9L125.2,218c11.3-10.1,26.1-16.2,42.4-16.2h691
		c35.1,0,63.7,28.6,63.7,63.7L922.3,759.4L922.3,759.4L922.3,759.4z"/>
</g>
</svg>
