<?xml version="1.0" encoding="utf-8"?>
<!-- Generator: Adobe Illustrator 22.0.0, SVG Export Plug-In . SVG Version: 6.00 Build 0)  -->
<svg version="1.1" id="图层_1" xmlns="http://www.w3.org/2000/svg" xmlns:xlink="http://www.w3.org/1999/xlink" x="0px" y="0px"
	 viewBox="0 0 200 200" style="enable-background:new 0 0 200 200;" xml:space="preserve">
<style type="text/css">
	.st0{fill:#4C4C4C;}
</style>
<path class="st0" d="M176.3,96l-34.9-34.9c-2.2-2.2-5.8-2.2-8,0s-2.2,5.8,0,8l25,25H80c-3.1,0-5.7,2.6-5.7,5.7s2.6,5.7,5.7,5.7h78.7
	l-25.3,25.3c-2.2,2.2-2.2,5.8,0,8c2.2,2.2,5.8,2.2,8,0l34.9-34.9C178.6,101.8,178.6,98.2,176.3,96L176.3,96z"/>
<path class="st0" d="M125.4,149.5c-3.1,0-5.7,2.5-5.7,5.7c0,0,0,0,0,0v6.3c0,4.2-3.4,7.6-7.6,7.6H40.8c-4.2,0-7.6-3.4-7.6-7.6V38.7
	c0-4.2,3.4-7.6,7.6-7.6h71.3c4.2,0,7.6,3.4,7.6,7.6V45c0,3.2,2.5,5.7,5.7,5.7s5.7-2.5,5.7-5.7v-6.3c0-10.5-8.5-19-19-19H40.8
	c-10.5,0-19,8.5-19,19v122.7c0,10.5,8.5,19,19,19h71.3c10.5,0,19-8.5,19-19v-6.3C131.1,152.1,128.5,149.5,125.4,149.5z"/>
</svg>
