<?xml version="1.0" encoding="utf-8"?>
<!-- Generator: Adobe Illustrator 22.0.0, SVG Export Plug-In . SVG Version: 6.00 Build 0)  -->
<svg version="1.1" id="图层_1" xmlns="http://www.w3.org/2000/svg" xmlns:xlink="http://www.w3.org/1999/xlink" x="0px" y="0px"
	 viewBox="0 0 1024 1024" style="enable-background:new 0 0 1024 1024;" xml:space="preserve">
<style type="text/css">
	.st0{fill:#8C8C8C;}
</style>
<path class="st0" d="M587.1,143.7c0-44.1-37.4-79.5-83.1-79.5c-45.6,0-83.1,35.9-83.1,79.5c0,4.6,0.5,8.7,1,13.3
	c-114.9,38.5-208.7,155.9-208.7,295.4v109.7c0,0,0,157.9-40.5,159c-24.1,0-42.6,17.9-42.6,40s18.5,40,41.5,40h664.6
	c23.1,0,41.5-18,41.5-40s-18.5-40-41.5-40c-41.5,0-41.5-157.9-41.5-157.9V452.4c0-139.5-88.2-256.9-208.7-295.4
	C586.6,152.4,587.1,148.3,587.1,143.7L587.1,143.7z M628.6,840.1c0,66.2-55.4,119.5-124.6,119.5c-68.7,0-124.6-53.3-124.6-119.5
	H628.6z"/>
</svg>
