<?xml version="1.0" encoding="utf-8"?>
<!-- Generator: Adobe Illustrator 22.0.0, SVG Export Plug-In . SVG Version: 6.00 Build 0)  -->
<svg version="1.1" id="图层_1" xmlns="http://www.w3.org/2000/svg" xmlns:xlink="http://www.w3.org/1999/xlink" x="0px" y="0px"
	 viewBox="0 0 1024 1024" style="enable-background:new 0 0 1024 1024;" xml:space="preserve">
<style type="text/css">
	.st0{fill:#898989;}
</style>
<g>
	<g>
		<path class="st0" d="M213.4,421.1c-9.9-20-8.5-29.5,1-62.4c5-17.1,10.8-32.5,16.5-42.2c3.8-3.2,10.3-1.3,22.2,2.2
			c38.9,8.4,91.2,39.3,117.2,72.5c2.8,5.1,4.7,8.5,5.8,14.5c2.7,25-29.7,38.4,60.4,125.8c60.5,61.7,99.5,84.4,123.1,91.3
			c32.9,9.5,35.5-9.6,57.3-6.2c5.3,1.5,22.9,9.5,38.6,24c32.4,30.8,68.5,78.3,60.1,107.2c0,10-12.7,19.1-15.3,28.3
			c3.1,13.7,21,16.1,29.4,21.4c79.4,25.9,149.7-79.1,172.1-170.9c47.2-197.2-37-432.5-283.3-506.7c-164.3-47.6-405.3,12.1-496,280.8
			c-55.3,156.4,15.5,423.3,269.7,499.9c93.9,30.1,191.1,24.1,302.5-26.3c12.3,36.3-42.7,58.9-71.5,64.8
			c-112.5,34.3-196.7,19.9-243.2,3.6C126.5,863.2,12.9,596.6,80,389.5C173.3,97.4,453.2,26.2,630.7,77.6
			c292.7,86.3,373,364.6,309.8,572.8C908,762.1,824.6,863.3,728.6,835.5c-23.7-6.9-31.3-14.8-58.9-42.7c-2.6-0.8-10.3,1.3-10.3,1.3
			c-12.6,9.2-23.3,1.8-30.6,2.5C548.2,774.6,415.9,680.7,322,572.2C277.6,523.8,226,456.1,213.4,421.1L213.4,421.1z"/>
	</g>
	<path class="st0" d="M737,728.2c27.2-24.9,38.1-43.1,40-49.6c3.5-31.8-56.9-103.4-81.9-110.7c-23.7-6.9-39.7,14.1-65.5,29.4
		C699.7,640.4,721.6,678.1,737,728.2L737,728.2z M391,378.5c11.2-13.9,19.5-32.8,23.3-46c1.6-15.2,1.8-20.9-5.5-30.1
		c-21-16.1-46.3-41.9-74.8-51.6c-9.2-2.7-20.3-8.7-28-6.7c-9.4,3-36.5,17.9-53.4,41.5C317.9,306.1,349.2,330.8,391,378.5L391,378.5z
		"/>
</g>
</svg>
