<?xml version="1.0" encoding="utf-8"?>
<!-- Generator: Adobe Illustrator 22.0.0, SVG Export Plug-In . SVG Version: 6.00 Build 0)  -->
<svg version="1.1" id="图层_1" xmlns="http://www.w3.org/2000/svg" xmlns:xlink="http://www.w3.org/1999/xlink" x="0px" y="0px"
	 viewBox="0 0 200 200" style="enable-background:new 0 0 200 200;" xml:space="preserve">
<style type="text/css">
	.st0{fill:#FFFFFF;}
</style>
<path class="st0" d="M104.1,18c55.4,0,58.1,52.9,58.1,52.9C170.6,82,166,92,166,92c27,42.4,9.5,54.7,4.8,55.6
	c-4.8,0.9-9.3-5.2-9.3-5.2s-1.6,6.1-5.4,9.3c14.1,6.6,11.6,14.7,11.6,14.7s-3,24.7-61.5,9.1l-5-0.9c-56.1,20.3-63.1-7-63.1-7
	s-2.3-11.3,8.6-15.7c-6.4-3.9-8.6-12-8.6-12s-5.7,9.3-13.2,5.9c-7.5-3.4-12-33.6,16.1-55.4c0,0-4.1-12.9,5.2-20.7
	C46.2,69.7,48.7,18,104.1,18 M54.9,72.7c-12.3,10.4-4.1,20.9-4.1,20.9c-27,16.6-22.2,43.3-22.2,43.3s4.3-2.2,7.4-8.4
	c3.1-6.2,7.8,1,7.8,1s3,14.3,12,19.9c9,5.6-0.4,9.2-0.4,9.2s-9.9,0.1-9.1,6.9c0.9,6.8,32.9,15.2,52.2,0.2l10.2,1.4
	c33.6,11.7,50.1,0.8,51.3-1.3c1.1-2.1-5.1-6.2-10.8-8.6c-5.7-2.4-7.1-4.9-2.1-8.2c5-3.3,7-10,10-16.9c2.9-6.9,7.4-3.5,7.9-1.6
	c0.6,1.9,4.8,8.4,4.8,8.4s10.9-11.6-11.8-45.8c0,0,4.9-10.3-3.4-18.6c0,0-2-48.1-51.3-48.1C53.9,26.4,54.9,72.7,54.9,72.7L54.9,72.7
	z"/>
</svg>
