<?xml version="1.0" encoding="utf-8"?>
<!-- Generator: Adobe Illustrator 22.0.0, SVG Export Plug-In . SVG Version: 6.00 Build 0)  -->
<svg version="1.1" id="图层_1" xmlns="http://www.w3.org/2000/svg" xmlns:xlink="http://www.w3.org/1999/xlink" x="0px" y="0px"
	 viewBox="0 0 1024 1024" style="enable-background:new 0 0 1024 1024;" xml:space="preserve">
<style type="text/css">
	.st0{fill:#F9DFD3;enable-background:new    ;}
	.st1{enable-background:new    ;}
	.st2{fill:none;stroke:#EC622F;stroke-width:36;stroke-miterlimit:10;}
	.st3{fill:none;stroke:#EC622F;stroke-width:30;stroke-miterlimit:10;}
	.st4{fill:#EC622F;}
</style>
<g>
	<path class="st0" d="M254.1,759.5c1-4.3,1.5-8.7,1.5-13.2V501.9c0-33.4-27.3-60.7-60.7-60.7h0c-33.4,0-60.7,27.3-60.7,60.7v244.3
		c0,4.5,0.5,9,1.5,13.2H254.1z"/>
	<path class="st0" d="M547.6,763.3c3.2-7.4,5-15.5,5-24.1V219.9c0-33.4-27.3-60.7-60.7-60.7h0c-33.4,0-60.7,27.3-60.7,60.7v519.3
		c0,8.5,1.8,16.7,5,24.1H547.6z"/>
	<path class="st0" d="M851.6,759V593c0-33.7-27.3-61.3-60.7-61.3h0c-33.4,0-60.7,27.6-60.7,61.3v166H851.6z"/>
	<g class="st1">
		<path class="st2" d="M809.7,777.4L809.7,777.4c-49.5,0-90-40.5-90-90v-113c0-49.5,40.5-90,90-90h0c49.5,0,90,40.5,90,90v113
			C899.7,736.9,859.2,777.4,809.7,777.4z"/>
		<path class="st3" d="M809.7,777.4L809.7,777.4c-49.5,0-90-40.5-90-90v-113c0-49.5,40.5-90,90-90h0c49.5,0,90,40.5,90,90v113
			C899.7,736.9,859.2,777.4,809.7,777.4z"/>
	</g>
	<g class="st1">
		<path class="st2" d="M215.1,777.4L215.1,777.4c-49.5,0-90-40.5-90-90V479.6c0-49.5,40.5-90,90-90h0c49.5,0,90,40.5,90,90v207.8
			C305.1,736.9,264.6,777.4,215.1,777.4z"/>
		<path class="st3" d="M215.1,777.4L215.1,777.4c-49.5,0-90-40.5-90-90V479.6c0-49.5,40.5-90,90-90h0c49.5,0,90,40.5,90,90v207.8
			C305.1,736.9,264.6,777.4,215.1,777.4z"/>
	</g>
	<g class="st1">
		<path class="st2" d="M512,777.4L512,777.4c-49.5,0-90-40.5-90-90V213.2c0-49.5,40.5-90,90-90h0c49.5,0,90,40.5,90,90v474.2
			C602,736.9,561.5,777.4,512,777.4z"/>
		<path class="st3" d="M512,777.4L512,777.4c-49.5,0-90-40.5-90-90V213.2c0-49.5,40.5-90,90-90h0c49.5,0,90,40.5,90,90v474.2
			C602,736.9,561.5,777.4,512,777.4z"/>
	</g>
	<path class="st4" d="M95.5,896.5h-10c-12.1,0-22-9.9-22-22l0,0c0-12.1,9.9-22,22-22h10c12.1,0,22,9.9,22,22l0,0
		C117.5,886.6,107.6,896.5,95.5,896.5z"/>
	<path class="st4" d="M744,896.5H192c-12.1,0-22-9.9-22-22l0,0c0-12.1,9.9-22,22-22h552c12.1,0,22,9.9,22,22l0,0
		C766,886.6,756.1,896.5,744,896.5z"/>
	<path class="st4" d="M938.5,896.5H824c-12.1,0-22-9.9-22-22l0,0c0-12.1,9.9-22,22-22h114.5c12.1,0,22,9.9,22,22l0,0
		C960.5,886.6,950.6,896.5,938.5,896.5z"/>
</g>
</svg>
