<?xml version="1.0" encoding="utf-8"?>
<!-- Generator: Adobe Illustrator 22.0.0, SVG Export Plug-In . SVG Version: 6.00 Build 0)  -->
<svg version="1.1" id="图层_1" xmlns="http://www.w3.org/2000/svg" xmlns:xlink="http://www.w3.org/1999/xlink" x="0px" y="0px"
	 viewBox="0 0 1024 1024" style="enable-background:new 0 0 1024 1024;" xml:space="preserve">
<style type="text/css">
	.st0{fill:#8C8C8C;}
</style>
<path class="st0" d="M434.7,98.2c186.8,0,338.2,151.4,338.2,338.2c0,80.4-28.2,154.1-75,212.3l223.6,223.5c14,14.1,14,36.9,0,51
	c-14,14.1-36.9,14.1-50.9,0L646.9,699.6c-58.1,46.9-131.9,75-212.2,75c-186.8,0-338.3-151.4-338.3-338.2
	C96.4,249.6,247.8,98.2,434.7,98.2z M434.7,722.6c157.8,0,286.2-128.3,286.2-286.1c0-157.8-128.4-286.2-286.2-286.2
	c-157.8,0-286.2,128.3-286.2,286.2C148.4,594.2,276.8,722.6,434.7,722.6z"/>
</svg>
