<?xml version="1.0" encoding="utf-8"?>
<!-- Generator: Adobe Illustrator 22.0.0, SVG Export Plug-In . SVG Version: 6.00 Build 0)  -->
<svg version="1.1" id="图层_1" xmlns="http://www.w3.org/2000/svg" xmlns:xlink="http://www.w3.org/1999/xlink" x="0px" y="0px"
	 viewBox="0 0 1024 1024" style="enable-background:new 0 0 1024 1024;" xml:space="preserve">
<style type="text/css">
	.st0{fill:#F9DFD3;}
	.st1{fill:#EC622F;}
</style>
<g>
	<path class="st0" d="M112.6,584.3c0,184.3,178.8,333.6,399.3,333.6s399.3-149.4,399.3-333.6S732.4,250.7,511.8,250.7
		S112.6,400.1,112.6,584.3C112.6,584.3,112.6,584.3,112.6,584.3z"/>
	<path class="st1" d="M717.5,477.9L397.9,293.3c-23.3-13.4-52.3,3.4-52.3,30.3v369.1c0,26.9,29.1,43.7,52.3,30.3l319.6-184.6
		C740.8,525,740.8,491.4,717.5,477.9z"/>
	<path class="st1" d="M651.6,116.8c0,12.1,9.8,21.8,21.8,21.8c12.1,0,21.8-9.8,21.8-21.8s-9.8-21.8-21.8-21.8
		C661.3,94.9,651.6,104.7,651.6,116.8z"/>
	<path class="st1" d="M569.6,93.3c0,12.1,9.8,21.8,21.8,21.8s21.8-9.8,21.8-21.8s-9.8-21.8-21.8-21.8S569.6,81.2,569.6,93.3z"/>
	<path class="st1" d="M733.7,161.8c0,12.1,9.8,21.8,21.8,21.8c12.1,0,21.8-9.8,21.8-21.8s-9.8-21.8-21.8-21.8
		C743.5,139.9,733.7,149.7,733.7,161.8z"/>
	<path class="st1" d="M797,215.8c0,12.1,9.8,21.8,21.8,21.8c12.1,0,21.8-9.8,21.8-21.8s-9.8-21.8-21.8-21.8
		C806.7,194,797,203.8,797,215.8z"/>
	<path class="st1" d="M512.5,959.3c-60.4,0-119.1-11.8-174.2-35.2c-53.3-22.5-101.2-54.8-142.2-95.9s-73.4-88.9-95.9-142.2
		c-23.4-55.2-35.2-113.8-35.2-174.2s11.8-119.1,35.2-174.2c22.5-53.3,54.8-101.2,95.9-142.2s88.9-73.4,142.2-95.9
		C393.4,76,452.1,64.2,512.5,64.2c27.3,0,54.6,2.5,81.3,7.3l-7.9,42.9c-24-4.4-48.7-6.7-73.4-6.7c-222.7,0-404,181.2-404,404
		s181.2,403.9,404,403.9s404-181.2,404-404c0-104.8-40-204.2-112.5-279.8l31.6-30.3c80.4,83.8,124.8,193.9,124.8,310
		c0,60.4-11.8,119.1-35.2,174.2c-22.5,53.3-54.8,101.2-95.9,142.2s-88.9,73.4-142.2,95.9C631.6,947.5,572.9,959.3,512.5,959.3z"/>
</g>
</svg>
