<?xml version="1.0" encoding="utf-8"?>
<!-- Generator: Adobe Illustrator 22.0.0, SVG Export Plug-In . SVG Version: 6.00 Build 0)  -->
<svg version="1.1" id="图层_1" xmlns="http://www.w3.org/2000/svg" xmlns:xlink="http://www.w3.org/1999/xlink" x="0px" y="0px"
	 viewBox="0 0 1024 1024" style="enable-background:new 0 0 1024 1024;" xml:space="preserve">
<style type="text/css">
	.st0{fill:#FFFFFF;}
</style>
<g>
	<path class="st0" d="M512,64.2C265.4,64.2,63.7,265.7,63.7,512c0,246.2,201.7,447.7,448.3,447.7c246.5,0,448.3-201.5,448.3-447.7
		C960.3,265.7,758.6,64.2,512,64.2z M512,922.4c-226,0-410.9-184.7-410.9-410.4c0-225.7,184.9-410.4,410.9-410.4
		c226,0,410.9,184.7,410.9,410.4C922.9,737.7,738,922.4,512,922.4z"/>
	<path class="st0" d="M652.1,450.4l-149.4-98.9c-50.4-33.6-93.4-11.2-93.4,50.4v223.9c0,61.6,41.1,84,93.4,50.4l149.4-98.9
		C702.5,539.9,702.5,484,652.1,450.4z"/>
</g>
</svg>
